# xmcd
#
# Track frame offsets: 
#        150
#        13751
#        29763
#        46294
#        61737
#        79745
#        94886
#        111407
#        125446
#        136506
#        149138
#        163456
#        177032
#        189175
#        203510
#        220533
#
# Disc length: 3138 seconds
#
# Revision: 5
# Processed by: cddbd v1.5.2PL0 Copyright (c) Steve Scherf et al.
# Submitted via: ExactAudioCopyFreeDBPlugin 1.0
#
DISCID=df0c4010
DTITLE=Randy Travis - I Told You So The Ultimate Hits Of Randy Travis
DYEAR=1986
DGENRE=Country
TTITLE0=Diggin' Up Bones
TTITLE1=Forever And Ever, Amen
TTITLE2=I Told You So
TTITLE3=He Walked On Water
TTITLE4=Promises
TTITLE5=Three Wooden Crosses
TTITLE6=Deeper Than The Holler
TTITLE7=On The Other Hand
TTITLE8=Too Gone Too Long
TTITLE9=We're Strangers Again
TTITLE10=Look Heart, No Hands
TTITLE11=1982
TTITLE12=Better Class Of Losers
TTITLE13=I Won't Need You Anymore
TTITLE14=Faith In You
TTITLE15=Love's Alive And Well
EXTD=
EXTT0=
EXTT1=
EXTT2=
EXTT3=
EXTT4=
EXTT5=
EXTT6=
EXTT7=
EXTT8=
EXTT9=
EXTT10=
EXTT11=
EXTT12=
EXTT13=
EXTT14=
EXTT15=
PLAYORDER=
